<svg width="261" height="263" viewBox="0 0 261 263" fill="none" xmlns="http://www.w3.org/2000/svg">
<path d="M161.973 7.06302C161.116 6.93656 160.204 6.86983 159.248 6.86983C158.721 6.86983 158.181 6.89075 157.629 6.93258C157.329 5.64006 156.641 4.44214 155.593 3.4145C158.579 3.99702 160.837 5.32938 161.973 7.06302Z" fill="#FFEBCC"/>
<path d="M132.188 186.756C116.143 186.756 101.154 184.387 89.9817 180.084C76.7837 175.002 69.807 167.578 69.807 158.613C69.807 157.469 70.7916 156.542 72.0055 156.542C73.2193 156.542 74.2039 157.469 74.2039 158.613C74.2039 174.368 103.373 182.612 132.188 182.612C161.003 182.612 190.173 174.368 190.173 158.613C190.173 157.469 191.157 156.542 192.371 156.542C193.584 156.542 194.569 157.469 194.569 158.613C194.569 177.949 162.232 186.756 132.188 186.756Z" fill="white"/>
<path d="M42.8309 219.188C41.7671 219.188 40.8322 218.458 40.6621 217.436C38.7668 206.027 43.8536 198.833 55.3856 196.552C57.0495 188.571 62.2228 186.259 67.2356 186.052C64.9305 176.311 66.213 168.113 71.1275 161.058C71.793 160.101 73.1559 159.834 74.1711 160.462C75.1863 161.09 75.4684 162.375 74.8018 163.331C70.1735 169.977 69.321 177.937 72.1977 187.667C72.3942 188.331 72.2262 189.044 71.7519 189.569C71.2765 190.092 70.5581 190.36 69.8291 190.282C63.5846 189.607 60.3931 192.173 59.4814 198.598C59.3535 199.503 58.6109 200.223 57.6548 200.369C47.4222 201.929 43.4025 207.149 45.0051 216.795C45.1931 217.926 44.3733 218.986 43.1732 219.163C43.0591 219.18 42.944 219.188 42.8309 219.188Z" fill="white"/>
<path d="M49.4421 217.741C47.418 217.741 45.4911 218.16 43.7437 219.003C39.9173 220.847 37.3322 224.534 36.4638 229.385C35.5553 234.461 36.6234 240.149 39.4736 245.401C42.3228 250.651 46.5897 254.798 51.4884 257.074C56.1695 259.248 60.8548 259.431 64.6801 257.587C72.8073 253.669 74.7226 241.827 68.9502 231.189C66.101 225.937 61.8341 221.792 56.9354 219.516C54.3936 218.335 51.8487 217.741 49.4421 217.741ZM58.9849 263C55.9138 263 52.7107 262.262 49.5435 260.79C43.8029 258.123 38.8366 253.327 35.5585 247.288C32.2814 241.247 31.0634 234.644 32.1282 228.696C33.2343 222.521 36.6487 217.769 41.7418 215.313C46.8338 212.858 52.921 213.03 58.8803 215.798C64.621 218.467 69.5873 223.263 72.8643 229.302C79.7406 241.974 76.9675 256.317 66.6821 261.276C64.2956 262.426 61.6915 263 58.9849 263Z" fill="white"/>
<path d="M63.4768 240.787C65.7334 244.945 64.4086 249.835 60.5188 251.711C56.629 253.586 51.6469 251.736 49.3904 247.578C47.1349 243.421 48.4596 238.53 52.3494 236.655C56.2392 234.78 61.2214 236.63 63.4768 240.787Z" fill="white"/>
<path d="M52.7118 225.031C53.8401 227.111 53.1777 229.558 51.2317 230.496C49.2858 231.434 46.7936 230.508 45.6654 228.429C44.5371 226.349 45.1995 223.903 47.1454 222.965C49.0914 222.026 51.5835 222.952 52.7118 225.031Z" fill="white"/>
<path d="M45.7087 232.746C47.1845 233.934 47.4793 235.891 46.369 237.118C45.2576 238.345 43.1606 238.376 41.6847 237.189C40.2089 236.001 39.9142 234.044 41.0255 232.817C42.1359 231.591 44.2329 231.559 45.7087 232.746Z" fill="white"/>
<path d="M62.7183 230.237C62.5345 232.057 61.0048 233.41 59.3018 233.257C57.5978 233.105 56.366 231.505 56.5487 229.684C56.7326 227.864 58.2623 226.512 59.9652 226.664C61.6693 226.817 62.9011 228.416 62.7183 230.237Z" fill="white"/>
<path d="M102.412 261.361C96.8675 261.361 91.2314 259.039 85.6482 254.404C82.257 257.014 77.2939 257.987 70.5676 257.372C69.359 257.262 68.4748 256.25 68.592 255.111C68.7082 253.971 69.7858 253.135 70.9912 253.248C77.3488 253.827 81.5788 252.835 83.923 250.212C84.3149 249.773 84.8833 249.507 85.4918 249.477C86.0971 249.454 86.693 249.657 87.1314 250.056C97.0027 259.038 105.83 259.646 114.91 251.971C115.629 251.361 116.685 251.269 117.513 251.738C127.135 257.206 136.878 257.194 147.294 251.705C148.112 251.272 149.135 251.378 149.834 251.971C158.916 259.646 167.743 259.038 177.614 250.056C178.052 249.657 178.638 249.454 179.254 249.477C179.862 249.507 180.43 249.773 180.822 250.212C183.166 252.836 187.401 253.827 193.754 253.248C194.969 253.134 196.036 253.971 196.153 255.111C196.27 256.25 195.386 257.262 194.178 257.372C187.451 257.987 182.488 257.014 179.097 254.404C168.624 263.098 157.959 263.652 148.079 256.011C137.294 261.263 126.728 261.272 116.628 256.04C112.026 259.589 107.254 261.36 102.412 261.361Z" fill="white"/>
<path d="M221.913 219.188C221.8 219.188 221.686 219.18 221.571 219.163C220.372 218.986 219.552 217.926 219.739 216.795C221.342 207.149 217.323 201.929 207.091 200.369C206.134 200.223 205.392 199.503 205.263 198.598C204.351 192.173 201.163 189.605 194.915 190.282C194.188 190.36 193.469 190.092 192.993 189.569C192.518 189.044 192.351 188.331 192.548 187.667C195.423 177.937 194.572 169.977 189.942 163.332C189.276 162.375 189.559 161.09 190.573 160.462C191.589 159.834 192.951 160.101 193.618 161.057C198.532 168.112 199.814 176.31 197.51 186.052C202.522 186.259 207.695 188.57 209.36 196.552C220.892 198.833 225.978 206.027 224.083 217.436C223.913 218.458 222.978 219.188 221.913 219.188Z" fill="white"/>
<path d="M215.303 217.741C212.896 217.741 210.353 218.334 207.809 219.516C202.911 221.792 198.644 225.937 195.794 231.189C190.022 241.827 191.938 253.669 200.065 257.587C203.891 259.432 208.576 259.249 213.257 257.074C218.156 254.798 222.423 250.651 225.272 245.401C228.122 240.149 229.19 234.461 228.281 229.385C227.412 224.534 224.827 220.847 221.002 219.003C219.254 218.16 217.327 217.741 215.303 217.741ZM205.76 263C203.053 263 200.449 262.426 198.063 261.276C187.778 256.317 185.004 241.974 191.88 229.302C195.157 223.263 200.124 218.467 205.865 215.798C211.824 213.03 217.912 212.859 223.004 215.313C228.097 217.769 231.511 222.521 232.616 228.696C233.682 234.644 232.464 241.247 229.186 247.288C225.909 253.327 220.941 258.123 215.201 260.79C212.035 262.262 208.832 263 205.76 263Z" fill="white"/>
<path d="M201.267 240.787C199.012 244.945 200.337 249.835 204.227 251.711C208.116 253.586 213.098 251.736 215.355 247.578C217.61 243.421 216.286 238.53 212.396 236.655C208.506 234.78 203.524 236.63 201.267 240.787Z" fill="white"/>
<path d="M212.032 225.031C210.904 227.111 211.568 229.558 213.513 230.496C215.458 231.434 217.952 230.508 219.08 228.429C220.208 226.349 219.546 223.903 217.6 222.965C215.654 222.026 213.162 222.952 212.032 225.031Z" fill="white"/>
<path d="M219.037 232.746C217.561 233.934 217.265 235.891 218.376 237.118C219.488 238.345 221.585 238.376 223.061 237.189C224.535 236.001 224.831 234.044 223.72 232.817C222.608 231.591 220.511 231.559 219.037 232.746Z" fill="white"/>
<path d="M202.027 230.237C202.211 232.057 203.741 233.41 205.444 233.257C207.148 233.105 208.379 231.505 208.197 229.684C208.013 227.864 206.483 226.512 204.78 226.664C203.076 226.817 201.844 228.416 202.027 230.237Z" fill="white"/>
<path d="M106.348 205.799C106.834 209.994 107.809 214.097 109.319 217.995C110.841 221.89 112.915 225.56 115.396 228.964C115.697 229.395 116.029 229.812 116.343 230.235C116.498 230.437 116.666 230.669 116.837 230.908L117.343 231.613L117.848 232.321L118.309 233.058C118.611 233.553 118.937 234.034 119.197 234.556C120.314 236.592 121.212 238.785 121.687 241.113C122.17 243.434 122.244 245.895 121.704 248.324C121.198 250.747 119.928 253.141 117.937 254.974C117.07 255.772 115.681 255.756 114.833 254.938C114.045 254.178 114.005 252.991 114.701 252.188L114.819 252.051C115.38 251.408 115.907 250.728 116.288 249.941C116.657 249.153 116.968 248.321 117.136 247.434C117.505 245.672 117.486 243.782 117.149 241.903C116.803 240.023 116.162 238.149 115.283 236.353C115.091 235.893 114.827 235.459 114.59 235.014L114.228 234.348L113.82 233.703L113.41 233.058C113.278 232.845 113.139 232.628 112.976 232.388C112.668 231.919 112.345 231.461 112.048 230.984C110.844 229.087 109.762 227.118 108.819 225.094C107.881 223.067 107.109 220.974 106.483 218.852C105.221 214.607 104.66 210.213 104.702 205.87C104.705 205.441 105.078 205.096 105.535 205.1C105.957 205.103 106.304 205.406 106.348 205.793V205.799Z" fill="white"/>
<path d="M74.6085 199.056C74.3254 203.626 74.2398 208.191 74.4447 212.725C74.5081 213.859 74.5388 214.992 74.6666 216.118L74.824 217.808L74.9032 218.651L75.0184 219.491C75.2857 221.733 75.6575 223.957 76.1266 226.154C77.0573 230.555 78.5479 234.79 80.2826 238.883C82.0268 242.983 84.4175 246.811 87.3174 250.248L87.3279 250.26C88.0833 251.156 87.9259 252.46 86.9751 253.172C86.0254 253.884 84.6467 253.74 83.8914 252.845C80.7041 249.093 78.157 244.893 76.1509 240.509C74.1257 236.117 73.0291 231.427 72.315 226.77C71.9748 224.435 71.7413 222.093 71.6177 219.753L71.5628 218.875L71.5491 217.998L71.5237 216.244C71.4857 215.075 71.5438 213.909 71.5712 212.744C71.7149 208.084 72.2209 203.459 72.97 198.886C73.0397 198.462 73.4612 198.171 73.9112 198.236C74.3338 198.298 74.6328 198.652 74.6095 199.046L74.6085 199.056Z" fill="white"/>
<path d="M101.913 248.463C102.477 249.353 103.044 250.245 103.548 251.195C104.052 252.146 104.536 253.124 104.856 254.257C104.922 254.551 104.999 254.838 105.046 255.145C105.07 255.468 105.142 255.767 105.111 256.118C105.126 256.788 104.923 257.546 104.564 258.239C104.165 258.917 103.606 259.5 103.015 259.911C102.719 260.14 102.424 260.284 102.12 260.47C101.823 260.622 101.526 260.755 101.224 260.895C100.265 261.342 99.104 260.972 98.6286 260.068C98.1543 259.164 98.5472 258.07 99.5054 257.623C99.6407 257.559 99.7928 257.51 99.9343 257.478C100.804 257.291 101.429 257 101.787 256.654C101.938 256.454 102.116 256.231 102.177 255.875C102.241 255.72 102.224 255.506 102.258 255.32C102.268 255.118 102.251 254.901 102.252 254.689C102.188 253.81 101.941 252.854 101.65 251.91C101.364 250.96 100.991 250.012 100.619 249.062L100.614 249.048C100.475 248.695 100.666 248.302 101.041 248.172C101.374 248.056 101.739 248.186 101.913 248.463Z" fill="white"/>
<path d="M111.451 244.255C112.232 245.017 112.987 245.827 113.666 246.732C114.34 247.636 114.944 248.646 115.332 249.8C115.724 250.948 115.837 252.257 115.613 253.513C115.394 254.774 114.867 255.948 114.215 256.989L114.197 257.017C113.655 257.884 112.471 258.172 111.551 257.662C110.632 257.15 110.326 256.034 110.868 255.167C110.924 255.078 110.995 254.987 111.064 254.91C112.249 253.602 112.913 252.113 112.657 250.393C112.412 248.672 111.38 246.892 110.178 245.241L110.174 245.236C109.916 244.882 110.012 244.396 110.388 244.153C110.726 243.934 111.176 243.985 111.451 244.255Z" fill="white"/>
<path d="M160.046 205.87C160.088 210.213 159.528 214.607 158.265 218.852C157.64 220.974 156.868 223.067 155.93 225.094C154.985 227.118 153.903 229.087 152.699 230.984C152.402 231.461 152.081 231.919 151.772 232.388C151.609 232.628 151.47 232.845 151.337 233.058L150.928 233.703L150.521 234.348L150.158 235.014C149.922 235.459 149.656 235.893 149.465 236.353C148.585 238.149 147.945 240.023 147.6 241.903C147.263 243.782 147.244 245.672 147.611 247.434C147.78 248.321 148.091 249.153 148.459 249.941C148.842 250.728 149.367 251.408 149.928 252.051L150.04 252.18C150.809 253.062 150.675 254.366 149.738 255.092C148.867 255.767 147.602 255.696 146.81 254.974C144.82 253.141 143.55 250.747 143.043 248.324C142.503 245.895 142.578 243.434 143.061 241.113C143.535 238.785 144.434 236.592 145.551 234.556C145.81 234.034 146.136 233.553 146.44 233.058L146.899 232.321L147.404 231.613L147.911 230.908C148.081 230.669 148.249 230.437 148.405 230.235C148.719 229.812 149.05 229.395 149.352 228.964C151.833 225.56 153.907 221.89 155.43 217.995C156.939 214.097 157.914 209.994 158.399 205.799L158.401 205.793C158.449 205.366 158.857 205.058 159.31 205.104C159.731 205.147 160.043 205.481 160.046 205.87Z" fill="white"/>
<path d="M191.779 198.886C192.528 203.459 193.033 208.084 193.176 212.744C193.204 213.909 193.262 215.075 193.224 216.244L193.198 217.998L193.185 218.875L193.131 219.753C193.007 222.093 192.773 224.435 192.432 226.77C191.718 231.427 190.622 236.117 188.598 240.509C186.59 244.893 184.043 249.093 180.856 252.845C180.098 253.738 178.715 253.883 177.767 253.168C176.819 252.453 176.666 251.148 177.425 250.255L177.43 250.248C180.33 246.811 182.722 242.983 184.465 238.883C186.2 234.79 187.69 230.555 188.621 226.154C189.091 223.957 189.463 221.733 189.73 219.491L189.844 218.651L189.923 217.808L190.082 216.118C190.209 214.992 190.24 213.859 190.304 212.725C190.508 208.191 190.422 203.626 190.139 199.056V199.05C190.113 198.621 190.459 198.254 190.914 198.228C191.342 198.205 191.712 198.496 191.779 198.886Z" fill="white"/>
<path d="M164.129 249.062C163.758 250.012 163.385 250.96 163.097 251.91C162.808 252.854 162.56 253.81 162.495 254.689C162.496 254.901 162.479 255.118 162.49 255.32C162.525 255.506 162.507 255.72 162.571 255.875C162.632 256.231 162.809 256.454 162.96 256.654C163.318 257 163.944 257.291 164.814 257.478C165.857 257.704 166.509 258.681 166.271 259.664C166.033 260.648 164.995 261.262 163.952 261.038C163.805 261.007 163.654 260.955 163.524 260.895C163.222 260.755 162.925 260.622 162.627 260.47C162.323 260.284 162.028 260.14 161.733 259.911C161.142 259.5 160.582 258.917 160.185 258.239C159.826 257.546 159.622 256.788 159.637 256.118C159.607 255.767 159.678 255.468 159.701 255.145C159.749 254.838 159.827 254.551 159.891 254.257C160.211 253.124 160.695 252.146 161.2 251.195C161.704 250.245 162.271 249.353 162.834 248.463C163.039 248.139 163.484 248.034 163.826 248.226C164.131 248.397 164.253 248.746 164.135 249.047L164.129 249.062Z" fill="white"/>
<path d="M154.57 245.241C153.369 246.892 152.337 248.672 152.09 250.394C151.835 252.113 152.499 253.602 153.685 254.91C154.378 255.675 154.282 256.824 153.469 257.477C152.658 258.131 151.439 258.04 150.746 257.275C150.674 257.197 150.61 257.113 150.557 257.026L150.532 256.989C149.881 255.948 149.354 254.774 149.136 253.513C148.911 252.257 149.024 250.948 149.416 249.8C149.803 248.646 150.408 247.636 151.083 246.732C151.761 245.827 152.516 245.017 153.297 244.255C153.614 243.945 154.138 243.936 154.466 244.235C154.761 244.503 154.799 244.928 154.574 245.236L154.57 245.241Z" fill="white"/>
<path d="M132.199 184.68C127.491 184.681 122.789 184.468 118.197 184.043C120.189 184.167 122.056 184.223 123.804 184.223C129.826 184.223 134.446 183.54 137.99 182.501C162.411 181.563 185.654 174.703 189.59 162.372C189.619 162.704 189.735 163.033 189.942 163.332C190.174 163.663 190.395 163.998 190.607 164.336C186.726 170.636 180.597 175.304 172.523 178.554C161.367 182.639 146.783 184.68 132.199 184.68ZM189.927 161.08C189.977 160.827 190.022 160.572 190.057 160.314C190.836 159.876 191.603 159.431 192.364 158.977C192.354 159.382 192.328 159.783 192.286 160.177C192.12 160.14 191.95 160.122 191.779 160.122C191.364 160.122 190.946 160.232 190.573 160.462C190.305 160.628 190.088 160.84 189.927 161.08Z" fill="white"/>
<path d="M190.607 164.336C190.395 163.998 190.174 163.663 189.942 163.332C189.735 163.033 189.619 162.704 189.59 162.372C189.548 161.92 189.667 161.465 189.927 161.08C190.088 160.84 190.305 160.628 190.573 160.462C190.946 160.232 191.364 160.122 191.779 160.122C191.95 160.122 192.12 160.14 192.286 160.177C192.206 160.916 192.072 161.635 191.883 162.34C191.855 162.298 191.826 162.256 191.797 162.215C191.427 162.942 191.031 163.649 190.607 164.336Z" fill="white"/>
<path d="M146.284 184.038C156.457 183.247 165.274 181.472 172.523 178.554C181.42 175.297 188.143 170.739 190.941 164.884C191.391 165.645 191.794 166.424 192.151 167.219C187.259 175.348 175.437 180.818 161.261 183.854C159.477 183.704 157.581 183.636 155.59 183.636C152.672 183.636 149.552 183.783 146.284 184.038Z" fill="white"/>
<path d="M160.235 258.664C158.941 258.665 157.739 258.57 156.627 258.379C155.473 258.184 154.417 257.887 153.457 257.487C153.462 257.484 153.466 257.48 153.469 257.477C154.281 256.824 154.378 255.675 153.685 254.91C153.577 254.791 153.473 254.671 153.374 254.549C155.496 255.844 157.613 256.682 159.743 257.06C159.836 257.457 159.987 257.858 160.185 258.239C160.27 258.386 160.363 258.527 160.463 258.663C160.387 258.664 160.311 258.664 160.235 258.664ZM165.921 258.149C165.656 257.822 165.273 257.577 164.814 257.478C164.478 257.407 164.178 257.319 163.916 257.219C168.309 256.774 172.794 254.418 177.521 250.14C177.491 250.175 177.461 250.212 177.43 250.248L177.425 250.255C176.666 251.148 176.819 252.453 177.767 253.168C177.851 253.23 177.936 253.286 178.026 253.336L173.371 255.939L173.267 256.001L171.805 256.819C169.713 257.4 167.752 257.843 165.921 258.149Z" fill="white"/>
<path d="M190.662 255.524C189.91 255.524 189.165 255.481 188.439 255.405C188.434 255.405 188.429 255.4 188.417 255.4C186.467 255.193 184.641 254.748 183.141 254.281C182.01 253.927 181.059 253.559 180.369 253.269C180.549 253.155 180.713 253.013 180.856 252.845C181.277 252.35 181.685 251.848 182.084 251.338C183.987 252.699 186.695 253.383 190.266 253.408C190.624 254.139 191.026 254.84 191.471 255.507C191.201 255.519 190.931 255.524 190.662 255.524Z" fill="white"/>
<path d="M222.186 214.946C221.486 214.652 220.771 214.407 220.041 214.209C220.538 206.206 216.368 201.784 207.09 200.369C206.134 200.223 205.392 199.503 205.263 198.598C204.445 192.836 201.797 190.176 196.753 190.176C196.172 190.176 195.561 190.212 194.915 190.282C194.832 190.291 194.748 190.295 194.666 190.295C194.027 190.295 193.414 190.033 192.993 189.569C192.518 189.044 192.351 188.331 192.548 187.667C194.883 179.765 194.76 173.03 192.151 167.219C191.794 166.424 191.391 165.645 190.941 164.884C191.334 164.062 191.65 163.213 191.883 162.34C197.245 170.146 197.42 178.913 194.666 188.223C195.392 188.145 196.085 188.106 196.745 188.106C203.154 188.106 206.51 191.758 207.442 198.323C217.803 199.905 223.031 205.216 222.186 214.946Z" fill="white"/>
<path d="M191.471 255.507C191.026 254.84 190.624 254.139 190.266 253.408C188.554 249.92 187.834 245.756 188.192 241.376C188.329 241.088 188.465 240.799 188.598 240.509C190.304 236.807 191.352 232.893 192.066 228.964C195.343 223.083 200.231 218.417 205.865 215.798C209.032 214.328 212.235 213.59 215.305 213.59C216.929 213.59 218.516 213.796 220.041 214.209C220.771 214.407 221.487 214.652 222.186 214.946C222.126 215.641 222.034 216.36 221.911 217.101C219.25 215.317 216.431 214.517 213.615 214.517C198.49 214.517 183.4 237.59 192.758 255.405C192.329 255.456 191.899 255.489 191.471 255.507Z" fill="white"/>
<path d="M149.389 254.558C149.234 254.374 149.083 254.182 148.938 253.986C146.872 251.179 145.993 247.117 146.284 241.834C146.647 242.386 147.019 242.902 147.401 243.382C147.279 244.765 147.34 246.135 147.611 247.434C147.78 248.321 148.091 249.153 148.459 249.941C148.648 250.328 148.869 250.688 149.113 251.031C148.986 251.841 148.988 252.688 149.136 253.513C149.197 253.869 149.284 254.217 149.389 254.558Z" fill="white"/>
<path d="M178.026 253.336C177.936 253.286 177.851 253.23 177.767 253.168C176.819 252.453 176.666 251.148 177.425 250.255L177.43 250.248C177.461 250.212 177.491 250.175 177.521 250.14C180.38 246.731 182.74 242.94 184.465 238.883C186.2 234.79 187.69 230.555 188.621 226.154C189.091 223.957 189.463 221.733 189.73 219.491L189.844 218.651L189.923 217.808L190.082 216.118C190.209 214.992 190.24 213.859 190.304 212.725C190.508 208.191 190.422 203.626 190.139 199.056V199.05C190.113 198.621 190.459 198.254 190.914 198.228C190.93 198.228 190.947 198.227 190.963 198.227C191.37 198.227 191.715 198.511 191.779 198.886C192.528 203.459 193.033 208.084 193.176 212.744C193.204 213.909 193.262 215.075 193.224 216.244L193.198 217.998L193.185 218.875L193.131 219.752C193.007 222.093 192.773 224.435 192.432 226.77C192.321 227.502 192.199 228.234 192.066 228.964C191.352 232.893 190.304 236.807 188.598 240.509C188.465 240.799 188.329 241.088 188.192 241.376C186.525 244.872 184.506 248.239 182.084 251.338C181.685 251.848 181.277 252.35 180.856 252.845C180.713 253.013 180.549 253.155 180.369 253.269C179.588 252.941 179.141 252.712 179.141 252.712L178.026 253.336Z" fill="white"/>
<path d="M160.463 258.663C160.363 258.527 160.27 258.386 160.185 258.239C159.987 257.858 159.836 257.457 159.743 257.06C159.667 256.738 159.63 256.419 159.637 256.118C159.607 255.767 159.678 255.468 159.701 255.145C159.749 254.838 159.827 254.551 159.891 254.257C160.211 253.124 160.695 252.146 161.2 251.195C161.704 250.245 162.271 249.353 162.834 248.463C162.97 248.249 163.21 248.13 163.457 248.13C163.582 248.13 163.71 248.161 163.826 248.226C164.131 248.397 164.253 248.745 164.135 249.047L164.129 249.062C163.758 250.012 163.385 250.96 163.097 251.91C162.808 252.854 162.56 253.81 162.495 254.689C162.496 254.901 162.479 255.118 162.49 255.32C162.525 255.506 162.507 255.72 162.571 255.875C162.632 256.231 162.809 256.454 162.96 256.654C163.18 256.867 163.501 257.058 163.916 257.219C164.178 257.319 164.478 257.407 164.814 257.478C165.273 257.577 165.656 257.822 165.921 258.149C163.952 258.478 162.133 258.649 160.463 258.663Z" fill="white"/>
<path d="M153.457 257.487C151.821 256.806 150.467 255.828 149.389 254.558C149.284 254.217 149.197 253.869 149.136 253.513C148.988 252.688 148.986 251.841 149.113 251.031C149.18 250.608 149.281 250.194 149.416 249.8C149.797 248.666 150.387 247.671 151.048 246.778C151.676 247.187 152.317 247.526 152.968 247.798C152.531 248.662 152.213 249.535 152.09 250.394C151.858 251.957 152.386 253.329 153.374 254.549C153.473 254.671 153.577 254.791 153.685 254.91C154.378 255.675 154.282 256.824 153.469 257.477C153.466 257.48 153.462 257.484 153.457 257.487Z" fill="white"/>
<path d="M172.523 178.554C180.597 175.304 186.726 170.636 190.607 164.336C190.721 164.518 190.832 164.7 190.941 164.884C188.143 170.738 181.42 175.297 172.523 178.554Z" fill="white"/>
<path d="M190.941 164.884C190.832 164.7 190.721 164.518 190.607 164.336C191.031 163.649 191.427 162.942 191.797 162.215C191.826 162.257 191.855 162.298 191.883 162.34C191.65 163.213 191.334 164.062 190.941 164.884Z" fill="white"/>
<path d="M74.2799 253.408C73.7929 253.408 73.2901 253.396 72.7714 253.372C74.7701 248.164 73.7179 237.509 73.7179 237.509L74.001 234.672C74.5726 236.656 75.2751 238.61 76.1509 240.509C76.2819 240.796 76.4161 241.083 76.5523 241.369C76.9126 245.751 76.191 249.919 74.4796 253.408C74.4131 253.408 74.3465 253.408 74.2799 253.408Z" fill="white"/>
<path d="M103.759 259.284C104.063 258.975 104.339 258.623 104.564 258.239C104.761 257.858 104.912 257.456 105.004 257.06C107.135 256.681 109.253 255.842 111.376 254.546C111.276 254.668 111.172 254.79 111.064 254.91C110.995 254.987 110.924 255.078 110.868 255.167C110.464 255.815 110.531 256.601 110.975 257.171C108.571 258.396 106.164 259.093 103.759 259.284ZM98.4659 258.899C94.7198 258.066 90.9726 256.053 87.2244 252.954C87.947 252.216 88.0114 251.071 87.3279 250.26L87.3174 250.248C87.2888 250.215 87.2614 250.182 87.2339 250.149C91.9562 254.421 96.4428 256.774 100.831 257.219C100.569 257.319 100.27 257.407 99.9344 257.478C99.7928 257.51 99.6407 257.559 99.5054 257.623C98.9466 257.884 98.58 258.365 98.4659 258.899ZM132.065 257.891C127.344 257.891 122.781 256.745 118.36 254.566C118.872 254.046 119.332 253.488 119.736 252.903C123.806 254.855 127.906 255.83 132.075 255.83C136.147 255.83 140.285 254.9 144.531 253.039C143.421 254.002 141.85 255.347 140.069 256.814H140.063C137.347 257.539 134.682 257.891 132.065 257.891ZM74.2778 255.478C73.4063 255.478 72.5041 255.442 71.5744 255.374C72.0614 254.886 72.4544 254.197 72.7713 253.372C73.2901 253.396 73.7929 253.408 74.2799 253.408C74.3465 253.408 74.413 253.408 74.4796 253.408C78.0535 253.383 80.759 252.699 82.6638 251.338C83.0621 251.847 83.4709 252.35 83.8914 252.845C83.9304 252.891 83.9706 252.935 84.0118 252.977C81.5577 254.744 78.2299 255.478 74.2778 255.478Z" fill="white"/>
<path d="M118.36 254.566C117.696 254.238 117.036 253.888 116.379 253.515C116.065 253.779 115.752 254.034 115.44 254.28C115.509 254.029 115.567 253.773 115.613 253.513C115.76 252.688 115.762 251.84 115.635 251.031C115.879 250.688 116.101 250.328 116.288 249.941C116.657 249.153 116.968 248.321 117.136 247.434C117.505 245.672 117.486 243.782 117.149 241.903C116.803 240.023 116.162 238.149 115.283 236.353C115.091 235.893 114.827 235.459 114.59 235.014L114.228 234.348L113.82 233.703L113.41 233.058C113.278 232.845 113.139 232.628 112.976 232.388C112.668 231.919 112.345 231.461 112.048 230.984C110.844 229.087 109.762 227.118 108.819 225.094C108.751 224.949 108.686 224.804 108.62 224.659C108.477 221.083 107.76 217.061 106.349 212.631C107.164 214.026 107.995 215.387 108.843 216.712C108.995 217.143 109.154 217.57 109.319 217.995C110.841 221.89 112.915 225.56 115.396 228.964C115.697 229.395 116.029 229.812 116.343 230.235C116.498 230.437 116.666 230.669 116.837 230.908L117.343 231.613L117.848 232.321L118.309 233.058C118.611 233.553 118.937 234.034 119.197 234.556C120.314 236.592 121.212 238.785 121.687 241.113C122.17 243.434 122.244 245.895 121.704 248.324C121.373 249.913 120.712 251.489 119.736 252.903C119.332 253.488 118.872 254.046 118.36 254.566Z" fill="white"/>
<path d="M84.0117 252.977C83.9705 252.935 83.9304 252.891 83.8913 252.845C83.4708 252.35 83.062 251.847 82.6637 251.338C80.2392 248.236 78.2204 244.867 76.5523 241.369C76.416 241.083 76.2818 240.796 76.1508 240.509C75.275 238.611 74.5725 236.656 74.001 234.672L74.4711 229.962C75.9755 232.419 77.5823 234.541 79.2462 236.34C79.58 237.194 79.9265 238.042 80.2825 238.883C82.0098 242.943 84.372 246.737 87.2339 250.149C87.2613 250.182 87.2888 250.215 87.3173 250.248L87.3279 250.26C88.0114 251.071 87.947 252.216 87.2244 252.954C86.6845 252.507 86.1447 252.038 85.6038 251.547C85.1242 252.083 84.5928 252.559 84.0117 252.977Z" fill="white"/>
<path d="M102.385 259.338C101.078 259.338 99.7727 259.19 98.4659 258.899C98.58 258.365 98.9466 257.884 99.5054 257.623C99.6407 257.559 99.7928 257.51 99.9344 257.478C100.27 257.407 100.569 257.319 100.831 257.219C101.246 257.058 101.568 256.867 101.787 256.654C101.938 256.454 102.116 256.231 102.177 255.875C102.241 255.72 102.224 255.506 102.259 255.32C102.268 255.118 102.251 254.901 102.252 254.689C102.188 253.81 101.941 252.854 101.65 251.91C101.364 250.96 100.991 250.012 100.619 249.062L100.614 249.048C100.475 248.695 100.666 248.302 101.042 248.172C101.124 248.143 101.208 248.129 101.292 248.129C101.543 248.129 101.782 248.255 101.913 248.463C102.477 249.353 103.044 250.245 103.548 251.195C104.052 252.146 104.536 253.124 104.856 254.257C104.922 254.551 104.999 254.838 105.046 255.145C105.07 255.468 105.142 255.767 105.111 256.118C105.117 256.419 105.08 256.738 105.004 257.06C104.912 257.456 104.761 257.858 104.564 258.239C104.339 258.623 104.063 258.975 103.759 259.284C103.3 259.32 102.843 259.338 102.385 259.338Z" fill="white"/>
<path d="M110.975 257.171C110.531 256.601 110.464 255.815 110.868 255.167C110.924 255.078 110.995 254.987 111.064 254.91C111.172 254.79 111.276 254.668 111.376 254.546C112.362 253.327 112.889 251.955 112.657 250.394C112.412 248.672 111.38 246.892 110.178 245.241L110.174 245.236C109.916 244.882 110.012 244.396 110.388 244.153C110.531 244.06 110.694 244.017 110.855 244.017C111.076 244.017 111.292 244.099 111.451 244.255C112.232 245.017 112.987 245.827 113.666 246.732C114.34 247.636 114.944 248.646 115.332 249.8C115.466 250.194 115.569 250.608 115.635 251.031C115.762 251.84 115.76 252.688 115.613 253.513C115.567 253.773 115.509 254.029 115.44 254.28C113.951 255.451 112.464 256.412 110.975 257.171Z" fill="white"/>
<path d="M144.892 252.725C143.981 251.357 143.362 249.846 143.043 248.324C142.503 245.895 142.578 243.434 143.061 241.113C143.439 239.26 144.085 237.493 144.896 235.822C147.143 234.744 148.482 233.707 148.482 233.707C140.976 242.673 146.229 251.547 146.229 251.547C146.229 251.547 145.734 251.991 144.892 252.725Z" fill="white"/>
<path d="M94.6691 79.8203C86.9349 78.8195 79.6371 85.8796 78.3694 95.5884C77.1006 105.297 82.3426 113.978 90.0768 114.979C97.8098 115.98 105.109 108.921 106.376 99.212C107.644 89.5032 102.403 80.821 94.6691 79.8203Z" fill="white"/>
<path d="M61.102 150.917C79.3793 165.607 106.65 172.983 135.931 171.16C164.479 169.379 190.775 158.763 206.275 142.76C206.817 142.198 207.645 141.956 208.432 142.14C209.233 142.327 209.858 142.919 210.046 143.675C212.032 151.669 216.121 156.104 222.548 157.232C226.357 157.901 230.235 155.86 231.771 152.379C234.018 147.293 233.825 142.841 233.669 139.264C233.501 135.386 233.342 131.721 236.754 129.448C237.345 129.054 238.102 128.96 238.779 129.195C239.459 129.429 239.971 129.963 240.152 130.623C240.77 132.881 241.5 133.753 241.786 133.948C242.382 133.704 244.159 131.893 245.839 126.062C247.113 121.644 248.686 113.626 248.942 100.522C248.955 99.912 249.252 99.3375 249.755 98.9531C250.257 98.5678 250.916 98.4124 251.55 98.5249C253.206 98.8227 254.512 98.047 255.444 96.2237C258.495 90.257 255.876 76.4386 243.02 66.0129C242.348 65.4672 242.089 64.5949 242.364 63.8013C242.638 63.0066 243.392 62.445 244.276 62.3773C244.972 62.3235 246.143 62.1393 246.153 61.504C246.192 59.0225 239.144 52.0332 222.264 50.2617C221.396 50.1711 220.667 49.6025 220.408 48.8149C220.149 48.0272 220.411 47.1708 221.073 46.6331C222.846 45.1952 223.333 44.2273 223.212 43.836C223.051 43.3172 221.378 40.6117 204.187 38.2925C203.224 38.1631 202.466 37.4521 202.324 36.5449C201.316 30.1311 197.07 26.5005 188.963 25.1214C188.272 25.0029 187.682 24.5817 187.375 23.9852C187.069 23.3897 187.084 22.6917 187.413 22.1072C188.958 19.3758 189.225 17.2558 188.206 15.8059C186.632 13.5654 180.291 10.1161 155.516 12.1853C154.789 12.248 154.075 11.9612 153.615 11.4255C153.154 10.8908 153.006 10.1738 153.22 9.5146C153.862 7.53998 152.636 6.27734 151.495 5.56635C147.276 2.93651 138.256 3.73912 129.85 10.4038C127.124 12.5677 123.288 12.7837 120.307 10.9396C111.122 5.26363 102.065 5.47574 98.2071 8.55866C97.1633 9.39312 96.1058 10.7832 96.9911 12.6722C97.2869 13.3035 97.2299 14.0304 96.84 14.614C96.4502 15.1975 95.7783 15.56 95.0483 15.5809C70.1852 16.2998 64.3252 20.4343 63.0458 22.8341C62.2165 24.3885 62.7479 26.4637 64.6252 29.0029C65.0277 29.5466 65.1291 30.2377 64.8999 30.863C64.6706 31.4894 64.1382 31.9743 63.4673 32.1685C55.5906 34.4458 51.8328 38.5255 51.6395 45.008C51.612 45.9241 50.9486 46.7148 50.0094 46.9508C33.2322 51.1768 31.9117 54.0516 31.8176 54.5844C31.7469 54.9867 32.3522 55.8928 34.2929 57.1216C35.0186 57.5817 35.3863 58.4032 35.2289 59.2147C35.0715 60.0253 34.4186 60.6716 33.5671 60.8588C17.0312 64.5073 10.9128 72.2345 11.2646 74.6951C11.3544 75.3244 12.5377 75.3781 13.2383 75.3513C14.1135 75.3214 14.9436 75.7924 15.3166 76.5512C15.689 77.3089 15.542 78.2041 14.943 78.8205C3.49204 90.6115 2.63062 104.625 6.4117 110.208C7.56712 111.914 8.96605 112.537 10.5677 112.059C11.1857 111.874 11.8578 111.956 12.4052 112.282C12.953 112.607 13.3202 113.145 13.409 113.749C15.3145 126.731 17.8859 134.516 19.7073 138.761C22.1122 144.363 24.1034 145.962 24.7259 146.137C24.9859 145.913 25.6013 144.964 25.9298 142.653C26.0263 141.978 26.4679 141.39 27.1123 141.081C27.7557 140.772 28.5205 140.782 29.1554 141.106C32.8297 142.981 33.1329 146.637 33.4551 150.507C33.7509 154.077 34.1207 158.518 36.9921 163.318C38.956 166.601 43.0644 168.193 46.7609 167.103C53.0002 165.264 56.5023 160.403 57.4668 152.244C57.5576 151.47 58.1017 150.81 58.875 150.535C59.6356 150.264 60.4924 150.412 61.102 150.917ZM127.216 175.576C101.757 175.577 78.2648 168.757 61.2108 156.336C59.4191 164.068 55.0127 169.013 48.073 171.058C42.4094 172.728 36.1374 170.329 33.1625 165.353C29.8136 159.756 29.3847 154.597 29.072 150.831C28.9758 149.678 28.8892 148.715 28.7646 147.913C27.5201 149.899 25.8886 150.293 24.7961 150.296H24.7868C21.6196 150.296 18.5958 147.066 15.7973 140.696C13.1551 134.681 10.9423 126.298 9.3658 116.36C6.77585 116.301 4.39423 114.931 2.70583 112.438C-2.14552 105.274 -0.782191 90.8116 9.31689 78.6722C7.8307 77.8516 7.09151 76.5333 6.9079 75.2477C6.12593 69.7779 14.1462 61.9541 28.6061 57.8236C27.7778 56.7601 27.2095 55.4407 27.482 53.9023C28.1782 49.967 34.145 46.7825 47.3504 43.3381C48.0709 36.6604 52.1677 31.8747 59.5575 29.0766C57.9813 26.1012 57.8313 23.3838 59.1169 20.973C62.1246 15.3339 72.6836 12.3167 92.2594 11.5301C92.1696 9.26865 93.2387 7.09686 95.3642 5.39806C100.403 1.37016 111.112 0.3027 122.717 7.47527C124.061 8.30574 125.791 8.20914 127.02 7.23428C137.64 -1.18699 148.408 -1.3254 153.919 2.11002C156.243 3.55788 157.579 5.59523 157.774 7.85166C177.309 6.44164 188.176 8.25496 191.872 13.5176C193.451 15.7681 193.645 18.4826 192.456 21.6133C200.145 23.565 204.816 27.8578 206.372 34.408C219.919 36.3497 226.244 38.8452 227.431 42.6739C227.896 44.1706 227.497 45.5447 226.809 46.6929C241.687 49.1763 250.636 56.0472 250.548 61.5658C250.528 62.8623 249.959 64.2544 248.587 65.2352C260.144 76.1588 263.32 90.3665 259.405 98.0231C258.043 100.687 255.85 102.314 253.286 102.661C252.972 112.707 251.831 121.276 249.966 127.546C247.988 134.191 245.389 137.737 242.24 138.085C241.154 138.204 239.486 137.995 237.999 136.163C237.976 136.973 238.012 137.939 238.062 139.095C238.226 142.87 238.45 148.039 235.83 153.973C233.502 159.245 227.576 162.328 221.743 161.306C214.602 160.052 209.605 155.641 206.851 148.174C190.229 163.688 164.742 173.517 136.221 175.294C133.198 175.482 130.193 175.576 127.216 175.576Z" fill="white"/>
<path d="M54.0112 73.3686C52.9178 76.4924 52.2765 79.7466 51.9628 83.0227C51.6522 86.3018 51.6553 89.6057 51.8487 92.9008C52.267 99.4958 53.5823 106.032 55.243 112.476C55.6804 114.084 56.104 115.694 56.5963 117.289C57.0548 118.884 57.5809 120.498 58.1017 122.11C58.3774 122.9 58.5813 123.76 58.8053 124.6L59.4328 127.09C59.83 128.747 60.2135 130.409 60.5526 132.083C61.2066 135.435 61.7601 138.823 62.0295 142.264C62.1531 143.986 62.2419 145.715 62.2197 147.459C62.1806 149.201 62.0897 150.954 61.8351 152.707C61.6714 153.841 60.5621 154.635 59.3589 154.479C58.1989 154.33 57.3738 153.353 57.4647 152.266L57.4668 152.241C57.602 150.657 57.677 149.053 57.6601 147.44C57.6717 145.828 57.5851 144.203 57.4626 142.578C57.3337 140.953 57.171 139.32 56.9703 137.689C56.7516 136.058 56.5181 134.426 56.2265 132.795C55.6751 129.539 55.0433 126.247 54.2299 123.083C53.7756 121.468 53.3161 119.857 52.9051 118.195C52.4656 116.552 52.0948 114.89 51.7113 113.233C50.9951 109.907 50.3306 106.566 49.9133 103.184C49.4823 99.8065 49.1495 96.4118 49.1167 92.9963C49.0629 89.5858 49.2435 86.1623 49.7643 82.7747C50.282 79.3901 51.1387 76.0363 52.4603 72.8409C52.6262 72.4416 53.1037 72.2434 53.5284 72.3997C53.9383 72.5501 54.1475 72.9793 54.0112 73.3686Z" fill="white"/>
<path d="M205.015 64.2743C206.731 67.2974 208.005 70.5317 208.948 73.8347C209.894 77.1397 210.505 80.5183 210.882 83.9119C211.617 90.7041 211.483 97.5381 210.859 104.298C210.687 105.986 210.527 107.678 210.298 109.359C210.099 111.055 209.847 112.706 209.598 114.36C209.189 117.592 208.982 120.932 208.837 124.227C208.75 125.877 208.725 127.524 208.713 129.168C208.724 130.809 208.756 132.449 208.836 134.077C208.917 135.704 209.04 137.328 209.25 138.927C209.436 140.532 209.712 142.114 210.045 143.672L210.05 143.691C210.29 144.814 209.52 145.907 208.33 146.133C207.181 146.352 206.06 145.679 205.767 144.624C205.294 142.913 204.982 141.182 204.723 139.456C204.477 137.728 204.351 136.001 204.256 134.277C204.081 130.83 204.211 127.403 204.435 124.003C204.551 122.301 204.728 120.608 204.912 118.918L205.222 116.376C205.339 115.516 205.433 114.64 205.607 113.824C205.921 112.165 206.241 110.503 206.496 108.87C206.784 107.23 207.002 105.584 207.233 103.939C208.071 97.3559 208.553 90.719 208.141 84.124C207.919 80.831 207.506 77.5509 206.786 74.3296C206.064 71.1112 205.02 67.9517 203.541 64.9713C203.348 64.583 203.525 64.1199 203.937 63.9377C204.335 63.7614 204.809 63.9138 205.015 64.2743Z" fill="white"/>
<path d="M213.077 39.7772C212.681 39.7214 212.279 39.6656 211.869 39.6109C211.865 39.584 211.86 39.5571 211.855 39.5312C212.278 39.6129 212.685 39.6955 213.077 39.7772Z" fill="#B2B2D4"/>
<path d="M224.038 159.427C223.763 159.427 223.487 159.417 223.211 159.396C216.722 156.376 212.195 153.481 212.195 153.481C212.195 153.481 212.1 153.372 211.937 153.148C211.654 152.764 211.147 152.051 210.542 151.015C210.537 151.005 210.529 150.99 210.524 150.98C209.826 149.785 208.994 148.169 208.206 146.154C208.247 146.148 208.288 146.141 208.33 146.133C209.52 145.907 210.29 144.813 210.05 143.691L210.045 143.672C210.045 143.67 210.044 143.669 210.044 143.667C210.045 143.67 210.045 143.673 210.046 143.675C212.032 151.669 216.121 156.104 222.548 157.232C223.033 157.316 223.519 157.358 224.001 157.358C227.306 157.358 230.43 155.418 231.771 152.379C234.018 147.293 233.825 142.841 233.669 139.264C233.501 135.386 233.342 131.721 236.754 129.448C237.13 129.197 237.575 129.067 238.023 129.067C238.277 129.067 238.534 129.109 238.779 129.195C239.459 129.429 239.971 129.963 240.152 130.623C240.77 132.881 241.5 133.753 241.786 133.948C242.382 133.704 244.159 131.893 245.839 126.062C247.113 121.644 248.686 113.626 248.942 100.522C248.955 99.912 249.252 99.3375 249.755 98.9531C250.15 98.6504 250.642 98.4891 251.142 98.4891C251.278 98.4891 251.415 98.501 251.55 98.5249C251.78 98.5667 252.003 98.5866 252.219 98.5866C253.561 98.5866 254.642 97.794 255.444 96.2237C258.495 90.257 255.876 76.4386 243.02 66.0129C242.348 65.4672 242.089 64.5949 242.364 63.8013C242.638 63.0066 243.392 62.445 244.276 62.3773C244.972 62.3235 246.143 62.1393 246.153 61.504C246.192 59.0225 239.144 52.0332 222.264 50.2617C221.396 50.1711 220.667 49.6025 220.408 48.8148C220.149 48.0272 220.411 47.1708 221.073 46.6331C222.846 45.1952 223.333 44.2273 223.212 43.836C223.085 43.4257 222.012 41.6492 213.077 39.7772C212.685 39.6955 212.278 39.6129 211.855 39.5312C209.723 39.115 207.193 38.6988 204.187 38.2925C203.224 38.163 202.466 37.452 202.324 36.5449C201.316 30.1311 197.07 26.5005 188.963 25.1214C188.272 25.0029 187.682 24.5817 187.375 23.9852C187.069 23.3897 187.084 22.6917 187.413 22.1072C188.958 19.3757 189.225 17.2557 188.206 15.8059C186.972 14.0494 182.805 11.549 169.122 11.549C167.866 11.549 166.532 11.5699 165.111 11.6147C162.698 11.0451 160.038 10.5004 157.135 9.97762C161.598 9.64005 165.62 9.47178 169.198 9.47178C187.815 9.47178 194.466 14.0334 189.354 23.082C199.259 24.7679 203.458 29.6272 204.499 36.2422C227.153 39.2972 228.232 43.5591 222.508 48.2034C246.15 50.6839 253.849 63.7226 244.453 64.4425C262.875 79.3821 261.291 100.662 252.246 100.662C251.889 100.662 251.52 100.629 251.141 100.561C250.669 124.633 245.688 136.04 241.755 136.04C240.256 136.04 238.91 134.383 238.023 131.14C233.099 134.421 238.617 142.273 233.8 153.176C232.132 156.957 228.251 159.427 224.038 159.427Z" fill="white"/>
<path d="M208.206 146.154C207.997 145.619 207.79 145.056 207.59 144.467L207.601 144.456C207.617 144.445 207.626 144.428 207.642 144.417C206.698 141.388 205.453 136.255 205.37 129.99C205.384 128.801 205.445 127.571 205.555 126.3C206.637 128.44 207.706 130.37 208.76 132.062C208.779 132.735 208.803 133.407 208.836 134.077C208.917 135.704 209.04 137.328 209.25 138.927C209.436 140.53 209.712 142.111 210.044 143.667C210.044 143.669 210.045 143.67 210.045 143.672L210.05 143.691C210.29 144.813 209.52 145.907 208.33 146.133C208.288 146.141 208.247 146.148 208.206 146.154Z" fill="white"/>
<path d="M42.0675 167.129C42.0347 167.12 42.0018 167.111 41.9689 167.101C41.9901 167.093 42.0124 167.084 42.0336 167.076C42.0453 167.093 42.0569 167.111 42.0675 167.129Z" fill="#B2998E"/>
<path d="M45.4224 169.045C43.2652 169.045 40.8819 168.583 38.2841 167.684C38.3823 167.686 38.4806 167.687 38.5778 167.687C39.8275 167.687 40.9579 167.493 41.9689 167.101C42.0017 167.111 42.0344 167.12 42.0672 167.129C42.8183 167.336 43.599 167.444 44.385 167.444C45.1794 167.444 45.9791 167.334 46.7609 167.103C53.0002 165.264 56.5023 160.403 57.4668 152.244C57.4668 152.242 57.4668 152.24 57.4679 152.238C57.4668 152.239 57.4668 152.24 57.4668 152.241L57.4647 152.266C57.3928 153.134 57.9031 153.932 58.7028 154.294C56.8234 164.394 52.2649 169.045 45.4224 169.045Z" fill="white"/>
<path d="M58.7028 154.294C57.9031 153.932 57.3928 153.134 57.4647 152.266L57.4668 152.241C57.4668 152.24 57.4668 152.239 57.4678 152.238C57.602 150.655 57.677 149.052 57.6601 147.44C57.6717 145.828 57.5851 144.203 57.4626 142.578C57.3337 140.953 57.171 139.32 56.9703 137.689C56.7516 136.058 56.5181 134.426 56.2265 132.795C55.6751 129.539 55.0433 126.247 54.2299 123.083C53.7756 121.468 53.3161 119.857 52.9051 118.195C52.4656 116.552 52.0948 114.89 51.7113 113.233C50.9951 109.907 50.3306 106.566 49.9133 103.184C49.4823 99.8065 49.1495 96.4119 49.1167 92.9963C49.0629 89.5858 49.2435 86.1623 49.7643 82.7747C50.282 79.3901 51.1387 76.0363 52.4603 72.8409C52.5882 72.5342 52.8988 72.346 53.2294 72.346C53.2516 72.346 53.2749 72.347 53.297 72.349C51.4176 77.987 50.8271 85.6077 50.4922 93.6257C50.4922 93.6257 52.6473 108.034 56.7252 122.464C59.511 132.318 60.7111 143.644 60.2357 151.263L59.5786 146.271C59.437 149.253 59.1444 151.923 58.7028 154.294Z" fill="white"/>
<path d="M61.326 153.776C60.8801 153.438 60.4354 153.092 59.9991 152.745L61.4052 144.255C61.6619 144.416 61.9154 144.575 62.1743 144.734C62.2123 145.639 62.2313 146.547 62.2197 147.459C62.1891 148.837 62.1246 150.222 61.9746 151.608C61.9345 151.974 61.889 152.341 61.8352 152.707C61.776 153.117 61.5922 153.484 61.326 153.776Z" fill="white"/>
<path d="M206.418 145.635C206.11 145.372 205.879 145.026 205.767 144.624C205.669 144.269 205.577 143.911 205.492 143.555C205.167 142.194 204.928 140.823 204.723 139.456C204.477 137.728 204.351 136.001 204.256 134.277C204.081 130.83 204.211 127.403 204.435 124.003C204.479 123.346 204.533 122.69 204.593 122.036C204.689 120.995 204.799 119.956 204.912 118.918L205.222 116.376C205.339 115.516 205.433 114.64 205.607 113.824C205.921 112.165 206.241 110.503 206.496 108.87C206.784 107.23 207.002 105.584 207.233 103.939C207.695 100.314 208.048 96.6727 208.204 93.0312C208.753 90.7867 209.243 88.4825 209.671 86.1136C209.671 86.1136 210.997 101.258 206.83 117.537C205.697 121.96 205.319 126.184 205.37 129.99C205.297 135.859 206.319 140.719 207.59 144.467C207.206 144.859 206.814 145.25 206.418 145.635Z" fill="white"/>
<path d="M178.005 80.6697C176.946 81.0979 175.819 81.5689 174.768 82.0737C173.705 82.5746 172.665 83.0904 171.66 83.649C169.647 84.7583 167.761 85.9851 166.031 87.3364C165.18 88.0265 164.349 88.7265 163.576 89.4743C162.807 90.2241 162.076 91.0018 161.394 91.8144C160.037 93.4435 158.893 95.2189 157.953 97.1109L153.681 93.6536C153.871 93.547 153.992 93.4873 154.124 93.4206C154.259 93.3499 154.387 93.2881 154.513 93.2314C154.767 93.1159 155.023 92.9994 155.275 92.9008C155.777 92.6857 156.285 92.5075 156.791 92.3252C157.299 92.154 157.81 91.9956 158.324 91.8532C158.844 91.7278 159.358 91.5844 159.881 91.4778C160.406 91.3782 160.925 91.2677 161.454 91.193L163.04 90.9998C164.105 90.9281 165.167 90.8784 166.231 90.9252C168.35 91.0138 170.458 91.3225 172.438 91.9608C174.436 92.5343 176.276 93.4733 177.968 94.5139C178.437 94.8027 178.569 95.3952 178.263 95.8373C178.03 96.1729 177.611 96.3262 177.218 96.2525L177.109 96.2326C176.642 96.144 176.187 96.0405 175.733 95.9429C175.276 95.8552 174.844 95.7158 174.381 95.669C173.468 95.5436 172.585 95.3763 171.681 95.3404C169.898 95.1652 168.122 95.2189 166.389 95.4141C164.655 95.5884 162.953 95.9558 161.314 96.4677C160.902 96.5881 160.503 96.7425 160.097 96.8759L158.913 97.339C158.528 97.5072 158.141 97.6695 157.776 97.8548C157.587 97.9424 157.415 98.037 157.241 98.1296C157.151 98.1764 157.065 98.2202 156.991 98.263L156.806 98.3686C155.408 99.1682 153.586 98.747 152.738 97.4286C152.234 96.6439 152.195 95.7019 152.535 94.9122C153.576 92.5413 154.959 90.2709 156.692 88.2674C157.547 87.2557 158.513 86.3366 159.51 85.4604C160.53 84.609 161.597 83.8143 162.725 83.1123C164.978 81.7093 167.413 80.6229 169.933 79.883C171.194 79.5176 172.473 79.2258 173.768 79.0366C175.075 78.8534 176.345 78.7379 177.724 78.7887C178.288 78.8096 178.727 79.2577 178.705 79.7884C178.689 80.1718 178.439 80.4934 178.089 80.6358L178.005 80.6697Z" fill="white"/>
<path d="M132.864 141.191L131.098 129.954C130.948 129 131.646 128.112 132.657 127.972C133.669 127.831 134.611 128.489 134.761 129.442C134.774 129.527 134.781 129.622 134.781 129.706L134.723 141.065C134.721 141.552 134.3 141.944 133.785 141.942C133.317 141.94 132.931 141.614 132.864 141.191Z" fill="white"/>
<path d="M133.774 150.166C130.503 150.166 127.375 148.619 124.897 145.76C122.396 142.874 120.842 138.947 120.521 134.704C120.448 133.746 121.214 132.914 122.23 132.845C123.246 132.78 124.131 133.499 124.204 134.457C124.471 137.99 125.732 141.224 127.757 143.56C129.629 145.72 131.921 146.825 134.21 146.672C136.501 146.517 138.603 145.117 140.131 142.728C141.783 140.145 142.546 136.777 142.278 133.243C142.205 132.284 142.971 131.452 143.988 131.383C145.004 131.316 145.888 132.037 145.96 132.996C146.282 137.238 145.335 141.332 143.293 144.525C141.127 147.91 137.995 149.906 134.472 150.142C134.239 150.158 134.005 150.166 133.774 150.166Z" fill="white"/>
<path d="M131.198 131.287C131.228 131.24 131.258 131.195 131.287 131.148L131.307 131.279L131.198 131.287Z" fill="#B24B6E"/>
<path d="M121.177 135.41C120.973 135.384 120.774 135.352 120.576 135.314V135.313C120.774 135.352 120.973 135.384 121.177 135.41Z" fill="white"/>
<path d="M145.608 133.697C145.74 133.657 145.869 133.613 145.996 133.568C145.869 133.614 145.74 133.657 145.608 133.697Z" fill="white"/>
<path d="M131.197 131.287C131.228 131.24 131.257 131.194 131.287 131.148C131.258 131.195 131.228 131.24 131.198 131.287H131.197Z" fill="#7C346F"/>
<path d="M130.016 132.728C130.489 132.266 130.877 131.778 131.197 131.287H131.198C130.877 131.778 130.489 132.266 130.016 132.728Z" fill="#7C1E59"/>
<path d="M132.917 127.952C132.873 127.835 132.836 127.724 132.802 127.62H132.803C132.837 127.724 132.874 127.835 132.918 127.952H132.917Z" fill="#7C6E9A"/>
<path d="M151.249 126.246C151.276 125.964 151.293 125.677 151.303 125.381C151.294 125.677 151.276 125.964 151.249 126.246Z" fill="#B29EAC"/>
<path d="M122.494 137.231C120.292 137.231 118.305 136.68 116.656 135.6C114.301 134.057 112.736 131.494 112.132 128.186C111.959 127.239 112.633 126.339 113.637 126.176C114.642 126.011 115.596 126.648 115.769 127.595C116.202 129.963 117.238 131.744 118.762 132.743C120.199 133.684 122.141 133.972 124.375 133.578C129.294 132.709 130.509 129.231 130.796 127.234L130.997 125.832L134.118 125.624L134.528 126.983C135.114 128.921 136.841 132.202 141.84 132.404C144.117 132.496 145.988 131.951 147.269 130.827C148.627 129.634 149.385 127.734 149.457 125.331C149.486 124.37 150.343 123.615 151.355 123.641C152.374 123.668 153.176 124.47 153.148 125.43C153.047 128.786 151.883 131.532 149.785 133.374C147.765 135.147 144.962 136.017 141.681 135.881C137.276 135.703 134.603 133.76 133.015 131.783C131.741 133.954 129.39 136.233 125.054 136.999C124.175 137.153 123.32 137.231 122.494 137.231Z" fill="white"/>
<path d="M132.469 126.329C131.51 126.329 130.7 125.629 130.631 124.712L130.18 118.759C130.108 117.8 130.873 116.968 131.89 116.9C132.888 116.831 133.79 117.552 133.863 118.511L134.313 124.465C134.386 125.424 133.62 126.256 132.602 126.324C132.558 126.327 132.514 126.329 132.469 126.329Z" fill="white"/>
<path d="M143.355 116.267C143.621 119.781 138.648 124.853 132.075 125.295C125.502 125.736 119.817 121.381 119.551 117.866C119.286 114.351 124.591 113.698 131.165 113.255C137.738 112.814 143.09 112.752 143.355 116.267Z" fill="white"/>
</svg>
